{"title":"Mijn Opa de Bankrover 2011 DVDrip Dutch/English Klam","uid":6970464,"size":1679152060,"categoryP":"video","categoryS":"movies","magnet":"?xt=urn:btih:0b96301d5d1518d729a1f9379a014aa7804bd237&amp;dn=Mijn+Opa+de+Bankrover+2011+DVDrip+Dutch%2FEnglish+Klam&amp;tr=udp%3A%2F%2Ftracker.openbittorrent.com%3A80&amp;tr=udp%3A%2F%2Fopen.demonii.com%3A1337&amp;tr=udp%3A%2F%2Ftracker.coppersurfer.tk%3A6969&amp;tr=udp%3A%2F%2Fexodus.desync.com%3A6969","seeders":1,"leechers":0,"uploader":"Klambake","files":-1,"time":1327075201,"description":"With: ZoÃƒÂ« van der Kust, Michiel Romeyn en Loes Haverkort\n\nDe 13-jarige Grace wil graag alles weten over haar Surinaamse vader, maar niemand wil haar iets vertellen. Opa is de enige is die haar kan helpen, maar zijn geheugen laat hem steeds meer in de steek. Als de familie hem in een bejaardentehuis wil stoppen, besluiten Grace en Opa om van Opa's spaargeld naar Suriname te gaan. Maar dan blijkt dat de familie Opa's geld heeft geblokkeerd. Grace haalt Opa over de bank te overvallen...\n\nIn order to find her father in Surinam Grace is forced to take some desperate measures. Grace is the only black child of an all-white family...\n\nEnglish Subtitles(srt) included\n\n------------------------ Dutch Friends ------------------------\n---------------------------------------------------------------\n- Bezoek ook eens mijn vrienden op: &lt;a href=&quot; http://www.Film-Test.nl&quot; rel=&quot;nofollow&quot; target=&quot;_NEW&quot;&gt; http://www.Film-Test.nl&lt;/a&gt; --\n----- voor mijn Nederlandse Sync. ondertitels ---- en meer ----\n------- http://www.Film-Test.nl ---- voor Films en meer -------\n---------------------------------------------------------------\n\nGeneral:\n\nComplete name                    : Mijn Opa de Bankrover\\Mijn Opa de Bankrover.avi\nFormat                           : AVI\nFormat/Info                      : Audio Video Interleave\nFile size                        : 1.56 GiB\nDuration                         : 1h 26mn\nOverall bit rate                 : 2 598 Kbps\n\nVideo:\n\nFormat                           : MPEG-4 Visual\nFormat profile                   : Simple@L3\nFormat settings, BVOP            : No\nFormat settings, QPel            : No\nFormat settings, GMC             : No warppoints\nFormat settings, Matrix          : Default (H.263)\nCodec ID                         : XVID\nCodec ID/Hint                    : XviD\nDuration                         : 1h 26mn\nBit rate                         : 2 139 Kbps\nWidth                            : 720 pixels\nHeight                           : 304 pixels\nDisplay aspect ratio             : 2.35:1\nFrame rate                       : 25.000 fps\nColor space                      : YUV\nChroma subsampling               : 4:2:0\nBit depth                        : 8 bits\nScan type                        : Progressive\nCompression mode                 : Lossy\nBits/(Pixel*Frame)               : 0.391\nStream size                      : 1.29 GiB (82%)\nWriting library                  : XviD 1.1.2 (UTC 2006-11-01)\n\nAudio:\n\nFormat                           : AC-3\nFormat/Info                      : Audio Coding 3\nMode extension                   : CM (complete main)\nCodec ID                         : 2000\nDuration                         : 1h 26mn\nBit rate mode                    : Constant\nBit rate                         : 448 Kbps\nChannel(s)                       : 6 channels\nChannel positions                : Front: L C R, Side: L R, LFE\nSampling rate                    : 48.0 KHz\nBit depth                        : 16 bits\nCompression mode                 : Lossy\nStream size                      : 276 MiB (17%)\nAlignment                        : Aligned on interleaves\nInterleave, duration             : 32 ms (0.80 video frame)\nInterleave, preload duration     : 64 ms\n\n","torrent":{"xt":"urn:btih:0b96301d5d1518d729a1f9379a014aa7804bd237","amp;dn":"Mijn+Opa+de+Bankrover+2011+DVDrip+Dutch%2FEnglish+Klam","amp;tr":["udp%3A%2F%2Ftracker.openbittorrent.com%3A80","udp%3A%2F%2Fopen.demonii.com%3A1337","udp%3A%2F%2Ftracker.coppersurfer.tk%3A6969","udp%3A%2F%2Fexodus.desync.com%3A6969"],"infoHash":"0b96301d5d1518d729a1f9379a014aa7804bd237","infoHashBuffer":{"type":"Buffer","data":[11,150,48,29,93,21,24,215,41,161,249,55,154,1,74,167,128,75,210,55]},"announce":[],"urlList":[]}}